<?xml version="1.0" encoding="iso-8859-1"?>
<!-- Generator: Adobe Illustrator 19.0.0, SVG Export Plug-In . SVG Version: 6.00 Build 0)  -->
<svg version="1.1" id="Layer_1" xmlns="http://www.w3.org/2000/svg" xmlns:xlink="http://www.w3.org/1999/xlink" x="0px" y="0px"
	 viewBox="0 0 512 512" style="enable-background:new 0 0 512 512;" xml:space="preserve">
<path style="fill:#C9C4E1;" d="M159.326,17.251v69.802c0,10.114-8.2,18.314-18.314,18.314H69.534c-1.157,0-2.045-1.02-1.901-2.168
	c1.2-9.516,5.53-18.432,12.382-25.274l49.995-49.995c7.313-7.324,16.98-11.764,27.222-12.585
	C158.356,15.253,159.326,16.124,159.326,17.251z"/>
<g>
	<path style="fill:#331E68;" d="M141.01,120.571H69.533c-4.911,0-9.592-2.115-12.84-5.799c-3.251-3.69-4.761-8.604-4.143-13.485
		c1.619-12.851,7.56-24.972,16.723-34.12l49.986-49.988c9.828-9.842,22.884-15.876,36.758-16.989
		c0.458-0.036,0.918-0.055,1.374-0.055c9.45,0,17.137,7.678,17.137,17.117v69.802C174.53,105.534,159.493,120.571,141.01,120.571z
		 M89.384,90.162h51.627c1.715,0,3.111-1.394,3.111-3.109V35.806c-1.184,0.862-2.307,1.82-3.351,2.868L90.767,88.675
		C90.288,89.156,89.826,89.651,89.384,90.162z"/>
	<path style="fill:#331E68;" d="M67.292,291.782c-8.396,0-15.204-6.809-15.204-15.204V108.636c0-1.397,0.055-2.869,0.164-4.373
		c1.057-14.032,7.102-27.195,17.021-37.099l49.986-49.988C129.826,6.596,143.886,0.503,158.844,0.03
		c0.044-0.002,0.222-0.006,0.268-0.006C159.646,0.011,160.191,0,160.723,0h142.791c28.388,0,51.484,23.096,51.484,51.484v143.699
		c0,8.396-6.809,15.204-15.204,15.204c-8.396,0-15.204-6.809-15.204-15.204V51.484c0-11.622-9.454-21.075-21.075-21.075H160.723
		c-0.304,0-0.614,0.009-0.918,0.015c-7.19,0.227-13.95,3.156-19.034,8.248L90.767,88.675c-4.777,4.77-7.683,11.099-8.191,17.833
		c-0.053,0.731-0.082,1.461-0.082,2.126v167.942C82.496,284.975,75.688,291.782,67.292,291.782z"/>
	<path style="fill:#331E68;" d="M461.888,210.387c-8.396,0-15.204-6.809-15.204-15.204V51.484c0-11.622-9.454-21.075-21.075-21.075
		H287.612c-0.304,0-0.614,0.009-0.918,0.015l-0.477-15.197l-0.342-15.2C286.535,0.011,287.079,0,287.612,0h137.997
		c28.388,0,51.484,23.096,51.484,51.484v143.699C477.092,203.58,470.285,210.387,461.888,210.387z"/>
</g>
<path style="fill:#C9C4E1;" d="M339.793,276.578c0,44.953-36.442,81.395-81.395,81.395s-81.395-36.442-81.395-81.395H51.47
	c-14.236,0-25.776,11.54-25.776,25.776v168.667c0,14.236,11.54,25.776,25.776,25.776h409.061c14.236,0,25.776-11.54,25.776-25.776
	V302.354c0-14.236-11.54-25.776-25.776-25.776L339.793,276.578L339.793,276.578z"/>
<path style="fill:#331E68;" d="M460.531,512H51.47c-22.595,0-40.979-18.384-40.979-40.979V302.352
	c0-22.595,18.384-40.979,40.979-40.979h125.532c8.396,0,15.204,6.809,15.204,15.204c0,36.498,29.693,66.191,66.191,66.191
	s66.191-29.693,66.191-66.191c0-8.396,6.809-15.204,15.204-15.204H460.53c22.595,0,40.979,18.384,40.979,40.979v168.669
	C501.51,493.616,483.127,512,460.531,512z M51.47,291.782c-5.828,0-10.57,4.742-10.57,10.57v168.669
	c0,5.828,4.742,10.57,10.57,10.57h409.061c5.828,0,10.57-4.742,10.57-10.57V302.352c0-5.828-4.742-10.57-10.57-10.57H353.804
	c-7.315,46.068-47.312,81.395-95.405,81.395s-88.091-35.327-95.405-81.395H51.47z"/>
<g>
</g>
<g>
</g>
<g>
</g>
<g>
</g>
<g>
</g>
<g>
</g>
<g>
</g>
<g>
</g>
<g>
</g>
<g>
</g>
<g>
</g>
<g>
</g>
<g>
</g>
<g>
</g>
<g>
</g>
</svg>
